<?xml version="1.0" encoding="utf-8"?>
<!DOCTYPE svg PUBLIC "-//W3C//DTD SVG 20010904//EN" "http://www.w3.org/TR/2001/REC-SVG-20010904/DTD/svg10.dtd">
<svg xmlns="http://www.w3.org/2000/svg" xml:space="preserve" xmlns:xlink="http://www.w3.org/1999/xlink" width="820" height="820" viewBox="0 0 820 820">
<defs>
<mask id="qrmask"><g fill="#ffffff">
<g transform="translate(200,40) scale(3.3333333333333)"><rect width="6" height="6"/></g>
<g transform="translate(220,40) scale(3.3333333333333)"><rect width="6" height="6"/></g>
<g transform="translate(240,40) scale(3.3333333333333)"><rect width="6" height="6"/></g>
<g transform="translate(260,40) scale(3.3333333333333)"><rect width="6" height="6"/></g>
<g transform="translate(280,40) scale(3.3333333333333)"><rect width="6" height="6"/></g>
<g transform="translate(300,40) scale(3.3333333333333)"><rect width="6" height="6"/></g>
<g transform="translate(320,40) scale(3.3333333333333)"><rect width="6" height="6"/></g>
<g transform="translate(380,40) scale(3.3333333333333)"><rect width="6" height="6"/></g>
<g transform="translate(420,40) scale(3.3333333333333)"><rect width="6" height="6"/></g>
<g transform="translate(540,40) scale(3.3333333333333)"><rect width="6" height="6"/></g>
<g transform="translate(600,40) scale(3.3333333333333)"><rect width="6" height="6"/></g>
<g transform="translate(240,60) scale(3.3333333333333)"><rect width="6" height="6"/></g>
<g transform="translate(260,60) scale(3.3333333333333)"><rect width="6" height="6"/></g>
<g transform="translate(320,60) scale(3.3333333333333)"><rect width="6" height="6"/></g>
<g transform="translate(340,60) scale(3.3333333333333)"><rect width="6" height="6"/></g>
<g transform="translate(380,60) scale(3.3333333333333)"><rect width="6" height="6"/></g>
<g transform="translate(400,60) scale(3.3333333333333)"><rect width="6" height="6"/></g>
<g transform="translate(460,60) scale(3.3333333333333)"><rect width="6" height="6"/></g>
<g transform="translate(480,60) scale(3.3333333333333)"><rect width="6" height="6"/></g>
<g transform="translate(500,60) scale(3.3333333333333)"><rect width="6" height="6"/></g>
<g transform="translate(520,60) scale(3.3333333333333)"><rect width="6" height="6"/></g>
<g transform="translate(540,60) scale(3.3333333333333)"><rect width="6" height="6"/></g>
<g transform="translate(560,60) scale(3.3333333333333)"><rect width="6" height="6"/></g>
<g transform="translate(580,60) scale(3.3333333333333)"><rect width="6" height="6"/></g>
<g transform="translate(220,80) scale(3.3333333333333)"><rect width="6" height="6"/></g>
<g transform="translate(260,80) scale(3.3333333333333)"><rect width="6" height="6"/></g>
<g transform="translate(280,80) scale(3.3333333333333)"><rect width="6" height="6"/></g>
<g transform="translate(320,80) scale(3.3333333333333)"><rect width="6" height="6"/></g>
<g transform="translate(340,80) scale(3.3333333333333)"><rect width="6" height="6"/></g>
<g transform="translate(360,80) scale(3.3333333333333)"><rect width="6" height="6"/></g>
<g transform="translate(380,80) scale(3.3333333333333)"><rect width="6" height="6"/></g>
<g transform="translate(420,80) scale(3.3333333333333)"><rect width="6" height="6"/></g>
<g transform="translate(440,80) scale(3.3333333333333)"><rect width="6" height="6"/></g>
<g transform="translate(460,80) scale(3.3333333333333)"><rect width="6" height="6"/></g>
<g transform="translate(480,80) scale(3.3333333333333)"><rect width="6" height="6"/></g>
<g transform="translate(500,80) scale(3.3333333333333)"><rect width="6" height="6"/></g>
<g transform="translate(560,80) scale(3.3333333333333)"><rect width="6" height="6"/></g>
<g transform="translate(600,80) scale(3.3333333333333)"><rect width="6" height="6"/></g>
<g transform="translate(220,100) scale(3.3333333333333)"><rect width="6" height="6"/></g>
<g transform="translate(240,100) scale(3.3333333333333)"><rect width="6" height="6"/></g>
<g transform="translate(340,100) scale(3.3333333333333)"><rect width="6" height="6"/></g>
<g transform="translate(420,100) scale(3.3333333333333)"><rect width="6" height="6"/></g>
<g transform="translate(440,100) scale(3.3333333333333)"><rect width="6" height="6"/></g>
<g transform="translate(480,100) scale(3.3333333333333)"><rect width="6" height="6"/></g>
<g transform="translate(500,100) scale(3.3333333333333)"><rect width="6" height="6"/></g>
<g transform="translate(520,100) scale(3.3333333333333)"><rect width="6" height="6"/></g>
<g transform="translate(540,100) scale(3.3333333333333)"><rect width="6" height="6"/></g>
<g transform="translate(560,100) scale(3.3333333333333)"><rect width="6" height="6"/></g>
<g transform="translate(200,120) scale(3.3333333333333)"><rect width="6" height="6"/></g>
<g transform="translate(220,120) scale(3.3333333333333)"><rect width="6" height="6"/></g>
<g transform="translate(260,120) scale(3.3333333333333)"><rect width="6" height="6"/></g>
<g transform="translate(280,120) scale(3.3333333333333)"><rect width="6" height="6"/></g>
<g transform="translate(360,120) scale(3.3333333333333)"><rect width="6" height="6"/></g>
<g transform="translate(380,120) scale(3.3333333333333)"><rect width="6" height="6"/></g>
<g transform="translate(460,120) scale(3.3333333333333)"><rect width="6" height="6"/></g>
<g transform="translate(500,120) scale(3.3333333333333)"><rect width="6" height="6"/></g>
<g transform="translate(520,120) scale(3.3333333333333)"><rect width="6" height="6"/></g>
<g transform="translate(540,120) scale(3.3333333333333)"><rect width="6" height="6"/></g>
<g transform="translate(560,120) scale(3.3333333333333)"><rect width="6" height="6"/></g>
<g transform="translate(200,140) scale(3.3333333333333)"><rect width="6" height="6"/></g>
<g transform="translate(240,140) scale(3.3333333333333)"><rect width="6" height="6"/></g>
<g transform="translate(300,140) scale(3.3333333333333)"><rect width="6" height="6"/></g>
<g transform="translate(320,140) scale(3.3333333333333)"><rect width="6" height="6"/></g>
<g transform="translate(440,140) scale(3.3333333333333)"><rect width="6" height="6"/></g>
<g transform="translate(480,140) scale(3.3333333333333)"><rect width="6" height="6"/></g>
<g transform="translate(540,140) scale(3.3333333333333)"><rect width="6" height="6"/></g>
<g transform="translate(560,140) scale(3.3333333333333)"><rect width="6" height="6"/></g>
<g transform="translate(580,140) scale(3.3333333333333)"><rect width="6" height="6"/></g>
<g transform="translate(600,140) scale(3.3333333333333)"><rect width="6" height="6"/></g>
<g transform="translate(200,160) scale(3.3333333333333)"><rect width="6" height="6"/></g>
<g transform="translate(240,160) scale(3.3333333333333)"><rect width="6" height="6"/></g>
<g transform="translate(280,160) scale(3.3333333333333)"><rect width="6" height="6"/></g>
<g transform="translate(320,160) scale(3.3333333333333)"><rect width="6" height="6"/></g>
<g transform="translate(360,160) scale(3.3333333333333)"><rect width="6" height="6"/></g>
<g transform="translate(400,160) scale(3.3333333333333)"><rect width="6" height="6"/></g>
<g transform="translate(440,160) scale(3.3333333333333)"><rect width="6" height="6"/></g>
<g transform="translate(480,160) scale(3.3333333333333)"><rect width="6" height="6"/></g>
<g transform="translate(520,160) scale(3.3333333333333)"><rect width="6" height="6"/></g>
<g transform="translate(560,160) scale(3.3333333333333)"><rect width="6" height="6"/></g>
<g transform="translate(600,160) scale(3.3333333333333)"><rect width="6" height="6"/></g>
<g transform="translate(220,180) scale(3.3333333333333)"><rect width="6" height="6"/></g>
<g transform="translate(260,180) scale(3.3333333333333)"><rect width="6" height="6"/></g>
<g transform="translate(280,180) scale(3.3333333333333)"><rect width="6" height="6"/></g>
<g transform="translate(340,180) scale(3.3333333333333)"><rect width="6" height="6"/></g>
<g transform="translate(440,180) scale(3.3333333333333)"><rect width="6" height="6"/></g>
<g transform="translate(460,180) scale(3.3333333333333)"><rect width="6" height="6"/></g>
<g transform="translate(480,180) scale(3.3333333333333)"><rect width="6" height="6"/></g>
<g transform="translate(500,180) scale(3.3333333333333)"><rect width="6" height="6"/></g>
<g transform="translate(520,180) scale(3.3333333333333)"><rect width="6" height="6"/></g>
<g transform="translate(540,180) scale(3.3333333333333)"><rect width="6" height="6"/></g>
<g transform="translate(600,180) scale(3.3333333333333)"><rect width="6" height="6"/></g>
<g transform="translate(60,200) scale(3.3333333333333)"><rect width="6" height="6"/></g>
<g transform="translate(80,200) scale(3.3333333333333)"><rect width="6" height="6"/></g>
<g transform="translate(100,200) scale(3.3333333333333)"><rect width="6" height="6"/></g>
<g transform="translate(120,200) scale(3.3333333333333)"><rect width="6" height="6"/></g>
<g transform="translate(140,200) scale(3.3333333333333)"><rect width="6" height="6"/></g>
<g transform="translate(160,200) scale(3.3333333333333)"><rect width="6" height="6"/></g>
<g transform="translate(180,200) scale(3.3333333333333)"><rect width="6" height="6"/></g>
<g transform="translate(240,200) scale(3.3333333333333)"><rect width="6" height="6"/></g>
<g transform="translate(280,200) scale(3.3333333333333)"><rect width="6" height="6"/></g>
<g transform="translate(300,200) scale(3.3333333333333)"><rect width="6" height="6"/></g>
<g transform="translate(320,200) scale(3.3333333333333)"><rect width="6" height="6"/></g>
<g transform="translate(340,200) scale(3.3333333333333)"><rect width="6" height="6"/></g>
<g transform="translate(360,200) scale(3.3333333333333)"><rect width="6" height="6"/></g>
<g transform="translate(380,200) scale(3.3333333333333)"><rect width="6" height="6"/></g>
<g transform="translate(400,200) scale(3.3333333333333)"><rect width="6" height="6"/></g>
<g transform="translate(420,200) scale(3.3333333333333)"><rect width="6" height="6"/></g>
<g transform="translate(440,200) scale(3.3333333333333)"><rect width="6" height="6"/></g>
<g transform="translate(480,200) scale(3.3333333333333)"><rect width="6" height="6"/></g>
<g transform="translate(520,200) scale(3.3333333333333)"><rect width="6" height="6"/></g>
<g transform="translate(560,200) scale(3.3333333333333)"><rect width="6" height="6"/></g>
<g transform="translate(660,200) scale(3.3333333333333)"><rect width="6" height="6"/></g>
<g transform="translate(680,200) scale(3.3333333333333)"><rect width="6" height="6"/></g>
<g transform="translate(760,200) scale(3.3333333333333)"><rect width="6" height="6"/></g>
<g transform="translate(60,220) scale(3.3333333333333)"><rect width="6" height="6"/></g>
<g transform="translate(80,220) scale(3.3333333333333)"><rect width="6" height="6"/></g>
<g transform="translate(100,220) scale(3.3333333333333)"><rect width="6" height="6"/></g>
<g transform="translate(140,220) scale(3.3333333333333)"><rect width="6" height="6"/></g>
<g transform="translate(180,220) scale(3.3333333333333)"><rect width="6" height="6"/></g>
<g transform="translate(220,220) scale(3.3333333333333)"><rect width="6" height="6"/></g>
<g transform="translate(240,220) scale(3.3333333333333)"><rect width="6" height="6"/></g>
<g transform="translate(340,220) scale(3.3333333333333)"><rect width="6" height="6"/></g>
<g transform="translate(360,220) scale(3.3333333333333)"><rect width="6" height="6"/></g>
<g transform="translate(380,220) scale(3.3333333333333)"><rect width="6" height="6"/></g>
<g transform="translate(400,220) scale(3.3333333333333)"><rect width="6" height="6"/></g>
<g transform="translate(500,220) scale(3.3333333333333)"><rect width="6" height="6"/></g>
<g transform="translate(540,220) scale(3.3333333333333)"><rect width="6" height="6"/></g>
<g transform="translate(580,220) scale(3.3333333333333)"><rect width="6" height="6"/></g>
<g transform="translate(620,220) scale(3.3333333333333)"><rect width="6" height="6"/></g>
<g transform="translate(660,220) scale(3.3333333333333)"><rect width="6" height="6"/></g>
<g transform="translate(740,220) scale(3.3333333333333)"><rect width="6" height="6"/></g>
<g transform="translate(60,240) scale(3.3333333333333)"><rect width="6" height="6"/></g>
<g transform="translate(160,240) scale(3.3333333333333)"><rect width="6" height="6"/></g>
<g transform="translate(180,240) scale(3.3333333333333)"><rect width="6" height="6"/></g>
<g transform="translate(200,240) scale(3.3333333333333)"><rect width="6" height="6"/></g>
<g transform="translate(220,240) scale(3.3333333333333)"><rect width="6" height="6"/></g>
<g transform="translate(260,240) scale(3.3333333333333)"><rect width="6" height="6"/></g>
<g transform="translate(280,240) scale(3.3333333333333)"><rect width="6" height="6"/></g>
<g transform="translate(300,240) scale(3.3333333333333)"><rect width="6" height="6"/></g>
<g transform="translate(360,240) scale(3.3333333333333)"><rect width="6" height="6"/></g>
<g transform="translate(400,240) scale(3.3333333333333)"><rect width="6" height="6"/></g>
<g transform="translate(440,240) scale(3.3333333333333)"><rect width="6" height="6"/></g>
<g transform="translate(480,240) scale(3.3333333333333)"><rect width="6" height="6"/></g>
<g transform="translate(520,240) scale(3.3333333333333)"><rect width="6" height="6"/></g>
<g transform="translate(540,240) scale(3.3333333333333)"><rect width="6" height="6"/></g>
<g transform="translate(560,240) scale(3.3333333333333)"><rect width="6" height="6"/></g>
<g transform="translate(580,240) scale(3.3333333333333)"><rect width="6" height="6"/></g>
<g transform="translate(640,240) scale(3.3333333333333)"><rect width="6" height="6"/></g>
<g transform="translate(740,240) scale(3.3333333333333)"><rect width="6" height="6"/></g>
<g transform="translate(760,240) scale(3.3333333333333)"><rect width="6" height="6"/></g>
<g transform="translate(60,260) scale(3.3333333333333)"><rect width="6" height="6"/></g>
<g transform="translate(100,260) scale(3.3333333333333)"><rect width="6" height="6"/></g>
<g transform="translate(140,260) scale(3.3333333333333)"><rect width="6" height="6"/></g>
<g transform="translate(200,260) scale(3.3333333333333)"><rect width="6" height="6"/></g>
<g transform="translate(260,260) scale(3.3333333333333)"><rect width="6" height="6"/></g>
<g transform="translate(280,260) scale(3.3333333333333)"><rect width="6" height="6"/></g>
<g transform="translate(340,260) scale(3.3333333333333)"><rect width="6" height="6"/></g>
<g transform="translate(400,260) scale(3.3333333333333)"><rect width="6" height="6"/></g>
<g transform="translate(460,260) scale(3.3333333333333)"><rect width="6" height="6"/></g>
<g transform="translate(480,260) scale(3.3333333333333)"><rect width="6" height="6"/></g>
<g transform="translate(500,260) scale(3.3333333333333)"><rect width="6" height="6"/></g>
<g transform="translate(560,260) scale(3.3333333333333)"><rect width="6" height="6"/></g>
<g transform="translate(580,260) scale(3.3333333333333)"><rect width="6" height="6"/></g>
<g transform="translate(600,260) scale(3.3333333333333)"><rect width="6" height="6"/></g>
<g transform="translate(640,260) scale(3.3333333333333)"><rect width="6" height="6"/></g>
<g transform="translate(680,260) scale(3.3333333333333)"><rect width="6" height="6"/></g>
<g transform="translate(760,260) scale(3.3333333333333)"><rect width="6" height="6"/></g>
<g transform="translate(80,280) scale(3.3333333333333)"><rect width="6" height="6"/></g>
<g transform="translate(160,280) scale(3.3333333333333)"><rect width="6" height="6"/></g>
<g transform="translate(200,280) scale(3.3333333333333)"><rect width="6" height="6"/></g>
<g transform="translate(220,280) scale(3.3333333333333)"><rect width="6" height="6"/></g>
<g transform="translate(260,280) scale(3.3333333333333)"><rect width="6" height="6"/></g>
<g transform="translate(300,280) scale(3.3333333333333)"><rect width="6" height="6"/></g>
<g transform="translate(320,280) scale(3.3333333333333)"><rect width="6" height="6"/></g>
<g transform="translate(380,280) scale(3.3333333333333)"><rect width="6" height="6"/></g>
<g transform="translate(400,280) scale(3.3333333333333)"><rect width="6" height="6"/></g>
<g transform="translate(480,280) scale(3.3333333333333)"><rect width="6" height="6"/></g>
<g transform="translate(500,280) scale(3.3333333333333)"><rect width="6" height="6"/></g>
<g transform="translate(520,280) scale(3.3333333333333)"><rect width="6" height="6"/></g>
<g transform="translate(540,280) scale(3.3333333333333)"><rect width="6" height="6"/></g>
<g transform="translate(560,280) scale(3.3333333333333)"><rect width="6" height="6"/></g>
<g transform="translate(620,280) scale(3.3333333333333)"><rect width="6" height="6"/></g>
<g transform="translate(640,280) scale(3.3333333333333)"><rect width="6" height="6"/></g>
<g transform="translate(680,280) scale(3.3333333333333)"><rect width="6" height="6"/></g>
<g transform="translate(720,280) scale(3.3333333333333)"><rect width="6" height="6"/></g>
<g transform="translate(120,300) scale(3.3333333333333)"><rect width="6" height="6"/></g>
<g transform="translate(140,300) scale(3.3333333333333)"><rect width="6" height="6"/></g>
<g transform="translate(180,300) scale(3.3333333333333)"><rect width="6" height="6"/></g>
<g transform="translate(220,300) scale(3.3333333333333)"><rect width="6" height="6"/></g>
<g transform="translate(240,300) scale(3.3333333333333)"><rect width="6" height="6"/></g>
<g transform="translate(280,300) scale(3.3333333333333)"><rect width="6" height="6"/></g>
<g transform="translate(300,300) scale(3.3333333333333)"><rect width="6" height="6"/></g>
<g transform="translate(360,300) scale(3.3333333333333)"><rect width="6" height="6"/></g>
<g transform="translate(380,300) scale(3.3333333333333)"><rect width="6" height="6"/></g>
<g transform="translate(400,300) scale(3.3333333333333)"><rect width="6" height="6"/></g>
<g transform="translate(440,300) scale(3.3333333333333)"><rect width="6" height="6"/></g>
<g transform="translate(460,300) scale(3.3333333333333)"><rect width="6" height="6"/></g>
<g transform="translate(500,300) scale(3.3333333333333)"><rect width="6" height="6"/></g>
<g transform="translate(600,300) scale(3.3333333333333)"><rect width="6" height="6"/></g>
<g transform="translate(620,300) scale(3.3333333333333)"><rect width="6" height="6"/></g>
<g transform="translate(660,300) scale(3.3333333333333)"><rect width="6" height="6"/></g>
<g transform="translate(700,300) scale(3.3333333333333)"><rect width="6" height="6"/></g>
<g transform="translate(720,300) scale(3.3333333333333)"><rect width="6" height="6"/></g>
<g transform="translate(740,300) scale(3.3333333333333)"><rect width="6" height="6"/></g>
<g transform="translate(60,320) scale(3.3333333333333)"><rect width="6" height="6"/></g>
<g transform="translate(80,320) scale(3.3333333333333)"><rect width="6" height="6"/></g>
<g transform="translate(140,320) scale(3.3333333333333)"><rect width="6" height="6"/></g>
<g transform="translate(160,320) scale(3.3333333333333)"><rect width="6" height="6"/></g>
<g transform="translate(280,320) scale(3.3333333333333)"><rect width="6" height="6"/></g>
<g transform="translate(320,320) scale(3.3333333333333)"><rect width="6" height="6"/></g>
<g transform="translate(380,320) scale(3.3333333333333)"><rect width="6" height="6"/></g>
<g transform="translate(400,320) scale(3.3333333333333)"><rect width="6" height="6"/></g>
<g transform="translate(460,320) scale(3.3333333333333)"><rect width="6" height="6"/></g>
<g transform="translate(540,320) scale(3.3333333333333)"><rect width="6" height="6"/></g>
<g transform="translate(580,320) scale(3.3333333333333)"><rect width="6" height="6"/></g>
<g transform="translate(600,320) scale(3.3333333333333)"><rect width="6" height="6"/></g>
<g transform="translate(640,320) scale(3.3333333333333)"><rect width="6" height="6"/></g>
<g transform="translate(680,320) scale(3.3333333333333)"><rect width="6" height="6"/></g>
<g transform="translate(700,320) scale(3.3333333333333)"><rect width="6" height="6"/></g>
<g transform="translate(740,320) scale(3.3333333333333)"><rect width="6" height="6"/></g>
<g transform="translate(760,320) scale(3.3333333333333)"><rect width="6" height="6"/></g>
<g transform="translate(40,340) scale(3.3333333333333)"><rect width="6" height="6"/></g>
<g transform="translate(140,340) scale(3.3333333333333)"><rect width="6" height="6"/></g>
<g transform="translate(180,340) scale(3.3333333333333)"><rect width="6" height="6"/></g>
<g transform="translate(220,340) scale(3.3333333333333)"><rect width="6" height="6"/></g>
<g transform="translate(240,340) scale(3.3333333333333)"><rect width="6" height="6"/></g>
<g transform="translate(260,340) scale(3.3333333333333)"><rect width="6" height="6"/></g>
<g transform="translate(300,340) scale(3.3333333333333)"><rect width="6" height="6"/></g>
<g transform="translate(340,340) scale(3.3333333333333)"><rect width="6" height="6"/></g>
<g transform="translate(440,340) scale(3.3333333333333)"><rect width="6" height="6"/></g>
<g transform="translate(460,340) scale(3.3333333333333)"><rect width="6" height="6"/></g>
<g transform="translate(480,340) scale(3.3333333333333)"><rect width="6" height="6"/></g>
<g transform="translate(520,340) scale(3.3333333333333)"><rect width="6" height="6"/></g>
<g transform="translate(560,340) scale(3.3333333333333)"><rect width="6" height="6"/></g>
<g transform="translate(600,340) scale(3.3333333333333)"><rect width="6" height="6"/></g>
<g transform="translate(640,340) scale(3.3333333333333)"><rect width="6" height="6"/></g>
<g transform="translate(660,340) scale(3.3333333333333)"><rect width="6" height="6"/></g>
<g transform="translate(680,340) scale(3.3333333333333)"><rect width="6" height="6"/></g>
<g transform="translate(740,340) scale(3.3333333333333)"><rect width="6" height="6"/></g>
<g transform="translate(760,340) scale(3.3333333333333)"><rect width="6" height="6"/></g>
<g transform="translate(60,360) scale(3.3333333333333)"><rect width="6" height="6"/></g>
<g transform="translate(80,360) scale(3.3333333333333)"><rect width="6" height="6"/></g>
<g transform="translate(140,360) scale(3.3333333333333)"><rect width="6" height="6"/></g>
<g transform="translate(160,360) scale(3.3333333333333)"><rect width="6" height="6"/></g>
<g transform="translate(260,360) scale(3.3333333333333)"><rect width="6" height="6"/></g>
<g transform="translate(280,360) scale(3.3333333333333)"><rect width="6" height="6"/></g>
<g transform="translate(300,360) scale(3.3333333333333)"><rect width="6" height="6"/></g>
<g transform="translate(320,360) scale(3.3333333333333)"><rect width="6" height="6"/></g>
<g transform="translate(360,360) scale(3.3333333333333)"><rect width="6" height="6"/></g>
<g transform="translate(420,360) scale(3.3333333333333)"><rect width="6" height="6"/></g>
<g transform="translate(440,360) scale(3.3333333333333)"><rect width="6" height="6"/></g>
<g transform="translate(460,360) scale(3.3333333333333)"><rect width="6" height="6"/></g>
<g transform="translate(500,360) scale(3.3333333333333)"><rect width="6" height="6"/></g>
<g transform="translate(540,360) scale(3.3333333333333)"><rect width="6" height="6"/></g>
<g transform="translate(560,360) scale(3.3333333333333)"><rect width="6" height="6"/></g>
<g transform="translate(600,360) scale(3.3333333333333)"><rect width="6" height="6"/></g>
<g transform="translate(620,360) scale(3.3333333333333)"><rect width="6" height="6"/></g>
<g transform="translate(660,360) scale(3.3333333333333)"><rect width="6" height="6"/></g>
<g transform="translate(720,360) scale(3.3333333333333)"><rect width="6" height="6"/></g>
<g transform="translate(740,360) scale(3.3333333333333)"><rect width="6" height="6"/></g>
<g transform="translate(760,360) scale(3.3333333333333)"><rect width="6" height="6"/></g>
<g transform="translate(40,380) scale(3.3333333333333)"><rect width="6" height="6"/></g>
<g transform="translate(60,380) scale(3.3333333333333)"><rect width="6" height="6"/></g>
<g transform="translate(100,380) scale(3.3333333333333)"><rect width="6" height="6"/></g>
<g transform="translate(120,380) scale(3.3333333333333)"><rect width="6" height="6"/></g>
<g transform="translate(320,380) scale(3.3333333333333)"><rect width="6" height="6"/></g>
<g transform="translate(340,380) scale(3.3333333333333)"><rect width="6" height="6"/></g>
<g transform="translate(380,380) scale(3.3333333333333)"><rect width="6" height="6"/></g>
<g transform="translate(400,380) scale(3.3333333333333)"><rect width="6" height="6"/></g>
<g transform="translate(420,380) scale(3.3333333333333)"><rect width="6" height="6"/></g>
<g transform="translate(460,380) scale(3.3333333333333)"><rect width="6" height="6"/></g>
<g transform="translate(480,380) scale(3.3333333333333)"><rect width="6" height="6"/></g>
<g transform="translate(520,380) scale(3.3333333333333)"><rect width="6" height="6"/></g>
<g transform="translate(560,380) scale(3.3333333333333)"><rect width="6" height="6"/></g>
<g transform="translate(580,380) scale(3.3333333333333)"><rect width="6" height="6"/></g>
<g transform="translate(640,380) scale(3.3333333333333)"><rect width="6" height="6"/></g>
<g transform="translate(700,380) scale(3.3333333333333)"><rect width="6" height="6"/></g>
<g transform="translate(720,380) scale(3.3333333333333)"><rect width="6" height="6"/></g>
<g transform="translate(40,400) scale(3.3333333333333)"><rect width="6" height="6"/></g>
<g transform="translate(60,400) scale(3.3333333333333)"><rect width="6" height="6"/></g>
<g transform="translate(80,400) scale(3.3333333333333)"><rect width="6" height="6"/></g>
<g transform="translate(100,400) scale(3.3333333333333)"><rect width="6" height="6"/></g>
<g transform="translate(140,400) scale(3.3333333333333)"><rect width="6" height="6"/></g>
<g transform="translate(160,400) scale(3.3333333333333)"><rect width="6" height="6"/></g>
<g transform="translate(200,400) scale(3.3333333333333)"><rect width="6" height="6"/></g>
<g transform="translate(220,400) scale(3.3333333333333)"><rect width="6" height="6"/></g>
<g transform="translate(240,400) scale(3.3333333333333)"><rect width="6" height="6"/></g>
<g transform="translate(260,400) scale(3.3333333333333)"><rect width="6" height="6"/></g>
<g transform="translate(280,400) scale(3.3333333333333)"><rect width="6" height="6"/></g>
<g transform="translate(300,400) scale(3.3333333333333)"><rect width="6" height="6"/></g>
<g transform="translate(360,400) scale(3.3333333333333)"><rect width="6" height="6"/></g>
<g transform="translate(380,400) scale(3.3333333333333)"><rect width="6" height="6"/></g>
<g transform="translate(400,400) scale(3.3333333333333)"><rect width="6" height="6"/></g>
<g transform="translate(460,400) scale(3.3333333333333)"><rect width="6" height="6"/></g>
<g transform="translate(480,400) scale(3.3333333333333)"><rect width="6" height="6"/></g>
<g transform="translate(540,400) scale(3.3333333333333)"><rect width="6" height="6"/></g>
<g transform="translate(580,400) scale(3.3333333333333)"><rect width="6" height="6"/></g>
<g transform="translate(700,400) scale(3.3333333333333)"><rect width="6" height="6"/></g>
<g transform="translate(720,400) scale(3.3333333333333)"><rect width="6" height="6"/></g>
<g transform="translate(740,400) scale(3.3333333333333)"><rect width="6" height="6"/></g>
<g transform="translate(760,400) scale(3.3333333333333)"><rect width="6" height="6"/></g>
<g transform="translate(80,420) scale(3.3333333333333)"><rect width="6" height="6"/></g>
<g transform="translate(140,420) scale(3.3333333333333)"><rect width="6" height="6"/></g>
<g transform="translate(240,420) scale(3.3333333333333)"><rect width="6" height="6"/></g>
<g transform="translate(300,420) scale(3.3333333333333)"><rect width="6" height="6"/></g>
<g transform="translate(360,420) scale(3.3333333333333)"><rect width="6" height="6"/></g>
<g transform="translate(440,420) scale(3.3333333333333)"><rect width="6" height="6"/></g>
<g transform="translate(460,420) scale(3.3333333333333)"><rect width="6" height="6"/></g>
<g transform="translate(480,420) scale(3.3333333333333)"><rect width="6" height="6"/></g>
<g transform="translate(520,420) scale(3.3333333333333)"><rect width="6" height="6"/></g>
<g transform="translate(580,420) scale(3.3333333333333)"><rect width="6" height="6"/></g>
<g transform="translate(600,420) scale(3.3333333333333)"><rect width="6" height="6"/></g>
<g transform="translate(620,420) scale(3.3333333333333)"><rect width="6" height="6"/></g>
<g transform="translate(640,420) scale(3.3333333333333)"><rect width="6" height="6"/></g>
<g transform="translate(740,420) scale(3.3333333333333)"><rect width="6" height="6"/></g>
<g transform="translate(760,420) scale(3.3333333333333)"><rect width="6" height="6"/></g>
<g transform="translate(40,440) scale(3.3333333333333)"><rect width="6" height="6"/></g>
<g transform="translate(100,440) scale(3.3333333333333)"><rect width="6" height="6"/></g>
<g transform="translate(120,440) scale(3.3333333333333)"><rect width="6" height="6"/></g>
<g transform="translate(140,440) scale(3.3333333333333)"><rect width="6" height="6"/></g>
<g transform="translate(160,440) scale(3.3333333333333)"><rect width="6" height="6"/></g>
<g transform="translate(200,440) scale(3.3333333333333)"><rect width="6" height="6"/></g>
<g transform="translate(260,440) scale(3.3333333333333)"><rect width="6" height="6"/></g>
<g transform="translate(280,440) scale(3.3333333333333)"><rect width="6" height="6"/></g>
<g transform="translate(340,440) scale(3.3333333333333)"><rect width="6" height="6"/></g>
<g transform="translate(380,440) scale(3.3333333333333)"><rect width="6" height="6"/></g>
<g transform="translate(400,440) scale(3.3333333333333)"><rect width="6" height="6"/></g>
<g transform="translate(420,440) scale(3.3333333333333)"><rect width="6" height="6"/></g>
<g transform="translate(440,440) scale(3.3333333333333)"><rect width="6" height="6"/></g>
<g transform="translate(480,440) scale(3.3333333333333)"><rect width="6" height="6"/></g>
<g transform="translate(540,440) scale(3.3333333333333)"><rect width="6" height="6"/></g>
<g transform="translate(560,440) scale(3.3333333333333)"><rect width="6" height="6"/></g>
<g transform="translate(580,440) scale(3.3333333333333)"><rect width="6" height="6"/></g>
<g transform="translate(620,440) scale(3.3333333333333)"><rect width="6" height="6"/></g>
<g transform="translate(640,440) scale(3.3333333333333)"><rect width="6" height="6"/></g>
<g transform="translate(660,440) scale(3.3333333333333)"><rect width="6" height="6"/></g>
<g transform="translate(680,440) scale(3.3333333333333)"><rect width="6" height="6"/></g>
<g transform="translate(700,440) scale(3.3333333333333)"><rect width="6" height="6"/></g>
<g transform="translate(720,440) scale(3.3333333333333)"><rect width="6" height="6"/></g>
<g transform="translate(760,440) scale(3.3333333333333)"><rect width="6" height="6"/></g>
<g transform="translate(60,460) scale(3.3333333333333)"><rect width="6" height="6"/></g>
<g transform="translate(100,460) scale(3.3333333333333)"><rect width="6" height="6"/></g>
<g transform="translate(140,460) scale(3.3333333333333)"><rect width="6" height="6"/></g>
<g transform="translate(200,460) scale(3.3333333333333)"><rect width="6" height="6"/></g>
<g transform="translate(240,460) scale(3.3333333333333)"><rect width="6" height="6"/></g>
<g transform="translate(360,460) scale(3.3333333333333)"><rect width="6" height="6"/></g>
<g transform="translate(380,460) scale(3.3333333333333)"><rect width="6" height="6"/></g>
<g transform="translate(500,460) scale(3.3333333333333)"><rect width="6" height="6"/></g>
<g transform="translate(560,460) scale(3.3333333333333)"><rect width="6" height="6"/></g>
<g transform="translate(660,460) scale(3.3333333333333)"><rect width="6" height="6"/></g>
<g transform="translate(40,480) scale(3.3333333333333)"><rect width="6" height="6"/></g>
<g transform="translate(60,480) scale(3.3333333333333)"><rect width="6" height="6"/></g>
<g transform="translate(80,480) scale(3.3333333333333)"><rect width="6" height="6"/></g>
<g transform="translate(120,480) scale(3.3333333333333)"><rect width="6" height="6"/></g>
<g transform="translate(160,480) scale(3.3333333333333)"><rect width="6" height="6"/></g>
<g transform="translate(180,480) scale(3.3333333333333)"><rect width="6" height="6"/></g>
<g transform="translate(200,480) scale(3.3333333333333)"><rect width="6" height="6"/></g>
<g transform="translate(220,480) scale(3.3333333333333)"><rect width="6" height="6"/></g>
<g transform="translate(240,480) scale(3.3333333333333)"><rect width="6" height="6"/></g>
<g transform="translate(280,480) scale(3.3333333333333)"><rect width="6" height="6"/></g>
<g transform="translate(320,480) scale(3.3333333333333)"><rect width="6" height="6"/></g>
<g transform="translate(360,480) scale(3.3333333333333)"><rect width="6" height="6"/></g>
<g transform="translate(380,480) scale(3.3333333333333)"><rect width="6" height="6"/></g>
<g transform="translate(420,480) scale(3.3333333333333)"><rect width="6" height="6"/></g>
<g transform="translate(440,480) scale(3.3333333333333)"><rect width="6" height="6"/></g>
<g transform="translate(460,480) scale(3.3333333333333)"><rect width="6" height="6"/></g>
<g transform="translate(580,480) scale(3.3333333333333)"><rect width="6" height="6"/></g>
<g transform="translate(620,480) scale(3.3333333333333)"><rect width="6" height="6"/></g>
<g transform="translate(640,480) scale(3.3333333333333)"><rect width="6" height="6"/></g>
<g transform="translate(740,480) scale(3.3333333333333)"><rect width="6" height="6"/></g>
<g transform="translate(760,480) scale(3.3333333333333)"><rect width="6" height="6"/></g>
<g transform="translate(40,500) scale(3.3333333333333)"><rect width="6" height="6"/></g>
<g transform="translate(100,500) scale(3.3333333333333)"><rect width="6" height="6"/></g>
<g transform="translate(120,500) scale(3.3333333333333)"><rect width="6" height="6"/></g>
<g transform="translate(180,500) scale(3.3333333333333)"><rect width="6" height="6"/></g>
<g transform="translate(200,500) scale(3.3333333333333)"><rect width="6" height="6"/></g>
<g transform="translate(240,500) scale(3.3333333333333)"><rect width="6" height="6"/></g>
<g transform="translate(260,500) scale(3.3333333333333)"><rect width="6" height="6"/></g>
<g transform="translate(320,500) scale(3.3333333333333)"><rect width="6" height="6"/></g>
<g transform="translate(340,500) scale(3.3333333333333)"><rect width="6" height="6"/></g>
<g transform="translate(360,500) scale(3.3333333333333)"><rect width="6" height="6"/></g>
<g transform="translate(400,500) scale(3.3333333333333)"><rect width="6" height="6"/></g>
<g transform="translate(420,500) scale(3.3333333333333)"><rect width="6" height="6"/></g>
<g transform="translate(440,500) scale(3.3333333333333)"><rect width="6" height="6"/></g>
<g transform="translate(460,500) scale(3.3333333333333)"><rect width="6" height="6"/></g>
<g transform="translate(480,500) scale(3.3333333333333)"><rect width="6" height="6"/></g>
<g transform="translate(520,500) scale(3.3333333333333)"><rect width="6" height="6"/></g>
<g transform="translate(560,500) scale(3.3333333333333)"><rect width="6" height="6"/></g>
<g transform="translate(640,500) scale(3.3333333333333)"><rect width="6" height="6"/></g>
<g transform="translate(660,500) scale(3.3333333333333)"><rect width="6" height="6"/></g>
<g transform="translate(760,500) scale(3.3333333333333)"><rect width="6" height="6"/></g>
<g transform="translate(40,520) scale(3.3333333333333)"><rect width="6" height="6"/></g>
<g transform="translate(60,520) scale(3.3333333333333)"><rect width="6" height="6"/></g>
<g transform="translate(100,520) scale(3.3333333333333)"><rect width="6" height="6"/></g>
<g transform="translate(160,520) scale(3.3333333333333)"><rect width="6" height="6"/></g>
<g transform="translate(200,520) scale(3.3333333333333)"><rect width="6" height="6"/></g>
<g transform="translate(260,520) scale(3.3333333333333)"><rect width="6" height="6"/></g>
<g transform="translate(340,520) scale(3.3333333333333)"><rect width="6" height="6"/></g>
<g transform="translate(360,520) scale(3.3333333333333)"><rect width="6" height="6"/></g>
<g transform="translate(380,520) scale(3.3333333333333)"><rect width="6" height="6"/></g>
<g transform="translate(400,520) scale(3.3333333333333)"><rect width="6" height="6"/></g>
<g transform="translate(420,520) scale(3.3333333333333)"><rect width="6" height="6"/></g>
<g transform="translate(440,520) scale(3.3333333333333)"><rect width="6" height="6"/></g>
<g transform="translate(480,520) scale(3.3333333333333)"><rect width="6" height="6"/></g>
<g transform="translate(500,520) scale(3.3333333333333)"><rect width="6" height="6"/></g>
<g transform="translate(520,520) scale(3.3333333333333)"><rect width="6" height="6"/></g>
<g transform="translate(620,520) scale(3.3333333333333)"><rect width="6" height="6"/></g>
<g transform="translate(640,520) scale(3.3333333333333)"><rect width="6" height="6"/></g>
<g transform="translate(680,520) scale(3.3333333333333)"><rect width="6" height="6"/></g>
<g transform="translate(700,520) scale(3.3333333333333)"><rect width="6" height="6"/></g>
<g transform="translate(720,520) scale(3.3333333333333)"><rect width="6" height="6"/></g>
<g transform="translate(740,520) scale(3.3333333333333)"><rect width="6" height="6"/></g>
<g transform="translate(760,520) scale(3.3333333333333)"><rect width="6" height="6"/></g>
<g transform="translate(40,540) scale(3.3333333333333)"><rect width="6" height="6"/></g>
<g transform="translate(60,540) scale(3.3333333333333)"><rect width="6" height="6"/></g>
<g transform="translate(100,540) scale(3.3333333333333)"><rect width="6" height="6"/></g>
<g transform="translate(120,540) scale(3.3333333333333)"><rect width="6" height="6"/></g>
<g transform="translate(200,540) scale(3.3333333333333)"><rect width="6" height="6"/></g>
<g transform="translate(220,540) scale(3.3333333333333)"><rect width="6" height="6"/></g>
<g transform="translate(260,540) scale(3.3333333333333)"><rect width="6" height="6"/></g>
<g transform="translate(280,540) scale(3.3333333333333)"><rect width="6" height="6"/></g>
<g transform="translate(300,540) scale(3.3333333333333)"><rect width="6" height="6"/></g>
<g transform="translate(380,540) scale(3.3333333333333)"><rect width="6" height="6"/></g>
<g transform="translate(400,540) scale(3.3333333333333)"><rect width="6" height="6"/></g>
<g transform="translate(480,540) scale(3.3333333333333)"><rect width="6" height="6"/></g>
<g transform="translate(500,540) scale(3.3333333333333)"><rect width="6" height="6"/></g>
<g transform="translate(520,540) scale(3.3333333333333)"><rect width="6" height="6"/></g>
<g transform="translate(560,540) scale(3.3333333333333)"><rect width="6" height="6"/></g>
<g transform="translate(600,540) scale(3.3333333333333)"><rect width="6" height="6"/></g>
<g transform="translate(660,540) scale(3.3333333333333)"><rect width="6" height="6"/></g>
<g transform="translate(700,540) scale(3.3333333333333)"><rect width="6" height="6"/></g>
<g transform="translate(720,540) scale(3.3333333333333)"><rect width="6" height="6"/></g>
<g transform="translate(40,560) scale(3.3333333333333)"><rect width="6" height="6"/></g>
<g transform="translate(80,560) scale(3.3333333333333)"><rect width="6" height="6"/></g>
<g transform="translate(100,560) scale(3.3333333333333)"><rect width="6" height="6"/></g>
<g transform="translate(120,560) scale(3.3333333333333)"><rect width="6" height="6"/></g>
<g transform="translate(140,560) scale(3.3333333333333)"><rect width="6" height="6"/></g>
<g transform="translate(160,560) scale(3.3333333333333)"><rect width="6" height="6"/></g>
<g transform="translate(200,560) scale(3.3333333333333)"><rect width="6" height="6"/></g>
<g transform="translate(300,560) scale(3.3333333333333)"><rect width="6" height="6"/></g>
<g transform="translate(340,560) scale(3.3333333333333)"><rect width="6" height="6"/></g>
<g transform="translate(380,560) scale(3.3333333333333)"><rect width="6" height="6"/></g>
<g transform="translate(420,560) scale(3.3333333333333)"><rect width="6" height="6"/></g>
<g transform="translate(460,560) scale(3.3333333333333)"><rect width="6" height="6"/></g>
<g transform="translate(520,560) scale(3.3333333333333)"><rect width="6" height="6"/></g>
<g transform="translate(580,560) scale(3.3333333333333)"><rect width="6" height="6"/></g>
<g transform="translate(600,560) scale(3.3333333333333)"><rect width="6" height="6"/></g>
<g transform="translate(640,560) scale(3.3333333333333)"><rect width="6" height="6"/></g>
<g transform="translate(680,560) scale(3.3333333333333)"><rect width="6" height="6"/></g>
<g transform="translate(700,560) scale(3.3333333333333)"><rect width="6" height="6"/></g>
<g transform="translate(740,560) scale(3.3333333333333)"><rect width="6" height="6"/></g>
<g transform="translate(760,560) scale(3.3333333333333)"><rect width="6" height="6"/></g>
<g transform="translate(40,580) scale(3.3333333333333)"><rect width="6" height="6"/></g>
<g transform="translate(240,580) scale(3.3333333333333)"><rect width="6" height="6"/></g>
<g transform="translate(320,580) scale(3.3333333333333)"><rect width="6" height="6"/></g>
<g transform="translate(360,580) scale(3.3333333333333)"><rect width="6" height="6"/></g>
<g transform="translate(380,580) scale(3.3333333333333)"><rect width="6" height="6"/></g>
<g transform="translate(400,580) scale(3.3333333333333)"><rect width="6" height="6"/></g>
<g transform="translate(440,580) scale(3.3333333333333)"><rect width="6" height="6"/></g>
<g transform="translate(460,580) scale(3.3333333333333)"><rect width="6" height="6"/></g>
<g transform="translate(480,580) scale(3.3333333333333)"><rect width="6" height="6"/></g>
<g transform="translate(500,580) scale(3.3333333333333)"><rect width="6" height="6"/></g>
<g transform="translate(560,580) scale(3.3333333333333)"><rect width="6" height="6"/></g>
<g transform="translate(580,580) scale(3.3333333333333)"><rect width="6" height="6"/></g>
<g transform="translate(600,580) scale(3.3333333333333)"><rect width="6" height="6"/></g>
<g transform="translate(620,580) scale(3.3333333333333)"><rect width="6" height="6"/></g>
<g transform="translate(660,580) scale(3.3333333333333)"><rect width="6" height="6"/></g>
<g transform="translate(680,580) scale(3.3333333333333)"><rect width="6" height="6"/></g>
<g transform="translate(700,580) scale(3.3333333333333)"><rect width="6" height="6"/></g>
<g transform="translate(760,580) scale(3.3333333333333)"><rect width="6" height="6"/></g>
<g transform="translate(40,600) scale(3.3333333333333)"><rect width="6" height="6"/></g>
<g transform="translate(160,600) scale(3.3333333333333)"><rect width="6" height="6"/></g>
<g transform="translate(200,600) scale(3.3333333333333)"><rect width="6" height="6"/></g>
<g transform="translate(240,600) scale(3.3333333333333)"><rect width="6" height="6"/></g>
<g transform="translate(380,600) scale(3.3333333333333)"><rect width="6" height="6"/></g>
<g transform="translate(420,600) scale(3.3333333333333)"><rect width="6" height="6"/></g>
<g transform="translate(480,600) scale(3.3333333333333)"><rect width="6" height="6"/></g>
<g transform="translate(500,600) scale(3.3333333333333)"><rect width="6" height="6"/></g>
<g transform="translate(520,600) scale(3.3333333333333)"><rect width="6" height="6"/></g>
<g transform="translate(540,600) scale(3.3333333333333)"><rect width="6" height="6"/></g>
<g transform="translate(560,600) scale(3.3333333333333)"><rect width="6" height="6"/></g>
<g transform="translate(600,600) scale(3.3333333333333)"><rect width="6" height="6"/></g>
<g transform="translate(620,600) scale(3.3333333333333)"><rect width="6" height="6"/></g>
<g transform="translate(640,600) scale(3.3333333333333)"><rect width="6" height="6"/></g>
<g transform="translate(660,600) scale(3.3333333333333)"><rect width="6" height="6"/></g>
<g transform="translate(680,600) scale(3.3333333333333)"><rect width="6" height="6"/></g>
<g transform="translate(700,600) scale(3.3333333333333)"><rect width="6" height="6"/></g>
<g transform="translate(720,600) scale(3.3333333333333)"><rect width="6" height="6"/></g>
<g transform="translate(740,600) scale(3.3333333333333)"><rect width="6" height="6"/></g>
<g transform="translate(760,600) scale(3.3333333333333)"><rect width="6" height="6"/></g>
<g transform="translate(200,620) scale(3.3333333333333)"><rect width="6" height="6"/></g>
<g transform="translate(220,620) scale(3.3333333333333)"><rect width="6" height="6"/></g>
<g transform="translate(240,620) scale(3.3333333333333)"><rect width="6" height="6"/></g>
<g transform="translate(320,620) scale(3.3333333333333)"><rect width="6" height="6"/></g>
<g transform="translate(340,620) scale(3.3333333333333)"><rect width="6" height="6"/></g>
<g transform="translate(380,620) scale(3.3333333333333)"><rect width="6" height="6"/></g>
<g transform="translate(400,620) scale(3.3333333333333)"><rect width="6" height="6"/></g>
<g transform="translate(420,620) scale(3.3333333333333)"><rect width="6" height="6"/></g>
<g transform="translate(440,620) scale(3.3333333333333)"><rect width="6" height="6"/></g>
<g transform="translate(500,620) scale(3.3333333333333)"><rect width="6" height="6"/></g>
<g transform="translate(580,620) scale(3.3333333333333)"><rect width="6" height="6"/></g>
<g transform="translate(600,620) scale(3.3333333333333)"><rect width="6" height="6"/></g>
<g transform="translate(680,620) scale(3.3333333333333)"><rect width="6" height="6"/></g>
<g transform="translate(200,640) scale(3.3333333333333)"><rect width="6" height="6"/></g>
<g transform="translate(300,640) scale(3.3333333333333)"><rect width="6" height="6"/></g>
<g transform="translate(340,640) scale(3.3333333333333)"><rect width="6" height="6"/></g>
<g transform="translate(400,640) scale(3.3333333333333)"><rect width="6" height="6"/></g>
<g transform="translate(420,640) scale(3.3333333333333)"><rect width="6" height="6"/></g>
<g transform="translate(440,640) scale(3.3333333333333)"><rect width="6" height="6"/></g>
<g transform="translate(480,640) scale(3.3333333333333)"><rect width="6" height="6"/></g>
<g transform="translate(520,640) scale(3.3333333333333)"><rect width="6" height="6"/></g>
<g transform="translate(540,640) scale(3.3333333333333)"><rect width="6" height="6"/></g>
<g transform="translate(600,640) scale(3.3333333333333)"><rect width="6" height="6"/></g>
<g transform="translate(640,640) scale(3.3333333333333)"><rect width="6" height="6"/></g>
<g transform="translate(680,640) scale(3.3333333333333)"><rect width="6" height="6"/></g>
<g transform="translate(700,640) scale(3.3333333333333)"><rect width="6" height="6"/></g>
<g transform="translate(740,640) scale(3.3333333333333)"><rect width="6" height="6"/></g>
<g transform="translate(760,640) scale(3.3333333333333)"><rect width="6" height="6"/></g>
<g transform="translate(200,660) scale(3.3333333333333)"><rect width="6" height="6"/></g>
<g transform="translate(220,660) scale(3.3333333333333)"><rect width="6" height="6"/></g>
<g transform="translate(240,660) scale(3.3333333333333)"><rect width="6" height="6"/></g>
<g transform="translate(360,660) scale(3.3333333333333)"><rect width="6" height="6"/></g>
<g transform="translate(380,660) scale(3.3333333333333)"><rect width="6" height="6"/></g>
<g transform="translate(500,660) scale(3.3333333333333)"><rect width="6" height="6"/></g>
<g transform="translate(520,660) scale(3.3333333333333)"><rect width="6" height="6"/></g>
<g transform="translate(580,660) scale(3.3333333333333)"><rect width="6" height="6"/></g>
<g transform="translate(600,660) scale(3.3333333333333)"><rect width="6" height="6"/></g>
<g transform="translate(680,660) scale(3.3333333333333)"><rect width="6" height="6"/></g>
<g transform="translate(200,680) scale(3.3333333333333)"><rect width="6" height="6"/></g>
<g transform="translate(240,680) scale(3.3333333333333)"><rect width="6" height="6"/></g>
<g transform="translate(340,680) scale(3.3333333333333)"><rect width="6" height="6"/></g>
<g transform="translate(360,680) scale(3.3333333333333)"><rect width="6" height="6"/></g>
<g transform="translate(420,680) scale(3.3333333333333)"><rect width="6" height="6"/></g>
<g transform="translate(440,680) scale(3.3333333333333)"><rect width="6" height="6"/></g>
<g transform="translate(460,680) scale(3.3333333333333)"><rect width="6" height="6"/></g>
<g transform="translate(480,680) scale(3.3333333333333)"><rect width="6" height="6"/></g>
<g transform="translate(500,680) scale(3.3333333333333)"><rect width="6" height="6"/></g>
<g transform="translate(520,680) scale(3.3333333333333)"><rect width="6" height="6"/></g>
<g transform="translate(540,680) scale(3.3333333333333)"><rect width="6" height="6"/></g>
<g transform="translate(560,680) scale(3.3333333333333)"><rect width="6" height="6"/></g>
<g transform="translate(580,680) scale(3.3333333333333)"><rect width="6" height="6"/></g>
<g transform="translate(600,680) scale(3.3333333333333)"><rect width="6" height="6"/></g>
<g transform="translate(620,680) scale(3.3333333333333)"><rect width="6" height="6"/></g>
<g transform="translate(640,680) scale(3.3333333333333)"><rect width="6" height="6"/></g>
<g transform="translate(660,680) scale(3.3333333333333)"><rect width="6" height="6"/></g>
<g transform="translate(680,680) scale(3.3333333333333)"><rect width="6" height="6"/></g>
<g transform="translate(720,680) scale(3.3333333333333)"><rect width="6" height="6"/></g>
<g transform="translate(740,680) scale(3.3333333333333)"><rect width="6" height="6"/></g>
<g transform="translate(200,700) scale(3.3333333333333)"><rect width="6" height="6"/></g>
<g transform="translate(260,700) scale(3.3333333333333)"><rect width="6" height="6"/></g>
<g transform="translate(280,700) scale(3.3333333333333)"><rect width="6" height="6"/></g>
<g transform="translate(300,700) scale(3.3333333333333)"><rect width="6" height="6"/></g>
<g transform="translate(360,700) scale(3.3333333333333)"><rect width="6" height="6"/></g>
<g transform="translate(380,700) scale(3.3333333333333)"><rect width="6" height="6"/></g>
<g transform="translate(400,700) scale(3.3333333333333)"><rect width="6" height="6"/></g>
<g transform="translate(600,700) scale(3.3333333333333)"><rect width="6" height="6"/></g>
<g transform="translate(640,700) scale(3.3333333333333)"><rect width="6" height="6"/></g>
<g transform="translate(680,700) scale(3.3333333333333)"><rect width="6" height="6"/></g>
<g transform="translate(720,700) scale(3.3333333333333)"><rect width="6" height="6"/></g>
<g transform="translate(740,700) scale(3.3333333333333)"><rect width="6" height="6"/></g>
<g transform="translate(760,700) scale(3.3333333333333)"><rect width="6" height="6"/></g>
<g transform="translate(200,720) scale(3.3333333333333)"><rect width="6" height="6"/></g>
<g transform="translate(220,720) scale(3.3333333333333)"><rect width="6" height="6"/></g>
<g transform="translate(260,720) scale(3.3333333333333)"><rect width="6" height="6"/></g>
<g transform="translate(280,720) scale(3.3333333333333)"><rect width="6" height="6"/></g>
<g transform="translate(300,720) scale(3.3333333333333)"><rect width="6" height="6"/></g>
<g transform="translate(320,720) scale(3.3333333333333)"><rect width="6" height="6"/></g>
<g transform="translate(360,720) scale(3.3333333333333)"><rect width="6" height="6"/></g>
<g transform="translate(380,720) scale(3.3333333333333)"><rect width="6" height="6"/></g>
<g transform="translate(440,720) scale(3.3333333333333)"><rect width="6" height="6"/></g>
<g transform="translate(480,720) scale(3.3333333333333)"><rect width="6" height="6"/></g>
<g transform="translate(500,720) scale(3.3333333333333)"><rect width="6" height="6"/></g>
<g transform="translate(520,720) scale(3.3333333333333)"><rect width="6" height="6"/></g>
<g transform="translate(540,720) scale(3.3333333333333)"><rect width="6" height="6"/></g>
<g transform="translate(560,720) scale(3.3333333333333)"><rect width="6" height="6"/></g>
<g transform="translate(600,720) scale(3.3333333333333)"><rect width="6" height="6"/></g>
<g transform="translate(620,720) scale(3.3333333333333)"><rect width="6" height="6"/></g>
<g transform="translate(700,720) scale(3.3333333333333)"><rect width="6" height="6"/></g>
<g transform="translate(760,720) scale(3.3333333333333)"><rect width="6" height="6"/></g>
<g transform="translate(200,740) scale(3.3333333333333)"><rect width="6" height="6"/></g>
<g transform="translate(240,740) scale(3.3333333333333)"><rect width="6" height="6"/></g>
<g transform="translate(300,740) scale(3.3333333333333)"><rect width="6" height="6"/></g>
<g transform="translate(320,740) scale(3.3333333333333)"><rect width="6" height="6"/></g>
<g transform="translate(460,740) scale(3.3333333333333)"><rect width="6" height="6"/></g>
<g transform="translate(500,740) scale(3.3333333333333)"><rect width="6" height="6"/></g>
<g transform="translate(580,740) scale(3.3333333333333)"><rect width="6" height="6"/></g>
<g transform="translate(680,740) scale(3.3333333333333)"><rect width="6" height="6"/></g>
<g transform="translate(700,740) scale(3.3333333333333)"><rect width="6" height="6"/></g>
<g transform="translate(760,740) scale(3.3333333333333)"><rect width="6" height="6"/></g>
<g transform="translate(240,760) scale(3.3333333333333)"><rect width="6" height="6"/></g>
<g transform="translate(260,760) scale(3.3333333333333)"><rect width="6" height="6"/></g>
<g transform="translate(300,760) scale(3.3333333333333)"><rect width="6" height="6"/></g>
<g transform="translate(320,760) scale(3.3333333333333)"><rect width="6" height="6"/></g>
<g transform="translate(360,760) scale(3.3333333333333)"><rect width="6" height="6"/></g>
<g transform="translate(480,760) scale(3.3333333333333)"><rect width="6" height="6"/></g>
<g transform="translate(500,760) scale(3.3333333333333)"><rect width="6" height="6"/></g>
<g transform="translate(540,760) scale(3.3333333333333)"><rect width="6" height="6"/></g>
<g transform="translate(560,760) scale(3.3333333333333)"><rect width="6" height="6"/></g>
<g transform="translate(580,760) scale(3.3333333333333)"><rect width="6" height="6"/></g>
<g transform="translate(740,760) scale(3.3333333333333)"><rect width="6" height="6"/></g>
<g transform="translate(760,760) scale(3.3333333333333)"><rect width="6" height="6"/></g>
<g transform="translate(40,40)"><g transform="scale(10)"><path d="M0,0v14h14V0H0z M12,12H2V2h10V12z"/></g></g>
<g transform="translate(640,40)"><g transform="scale(10)"><path d="M0,0v14h14V0H0z M12,12H2V2h10V12z"/></g></g>
<g transform="translate(40,640)"><g transform="scale(10)"><path d="M0,0v14h14V0H0z M12,12H2V2h10V12z"/></g></g>
<g transform="translate(80,80)"><g transform="scale(10)"><rect width="6" height="6"/></g></g>
<g transform="translate(680,80)"><g transform="scale(10)"><rect width="6" height="6"/></g></g>
<g transform="translate(80,680)"><g transform="scale(10)"><rect width="6" height="6"/></g></g>
</g></mask></defs>
<rect x="0" y="0" width="820" height="820" mask="url(#qrmask)" fill="#000000" />
</svg>